# xmcd
#
# Track frame offsets: 
#        150
#        16734
#        34908
#        51390
#        68788
#        81889
#        103159
#        120314
#        136375
#        152675
#        168171
#
# Disc length: 2540 seconds
#
# Revision: 0
# Processed by: cddbd v1.5.2PL0 Copyright (c) Steve Scherf et al.
# Submitted via: ExactAudioCopy v0.95b4
#
DISCID=8809ea0b
DTITLE=RYAN COOK - PEAKS AND VALLEYS
DYEAR=2010
DGENRE=FOLK
TTITLE0=NOW THAT I FOUND YOU
TTITLE1=WILD SIDE OF TOWN
TTITLE2=THE STREETS
TTITLE3=IF I KNOW NOTHING ELSE
TTITLE4=THE O.C.D. BLUES
TTITLE5=GASPEREAU VALLEY
TTITLE6=NAVINA
TTITLE7=SUN
TTITLE8=MY PERMANENT HEARTACHE
TTITLE9=THE BOY I NEVER KNEW HOW TO BE
TTITLE10=DEAD LIKE ME
EXTD=
EXTT0=
EXTT1=
EXTT2=
EXTT3=
EXTT4=
EXTT5=
EXTT6=
EXTT7=
EXTT8=
EXTT9=
EXTT10=
PLAYORDER=
